<?xml version="1.0" standalone="no"?>
<!DOCTYPE svg PUBLIC "-//W3C//DTD SVG 20010904//EN"
 "http://www.w3.org/TR/2001/REC-SVG-20010904/DTD/svg10.dtd">
<svg version="1.0" xmlns="http://www.w3.org/2000/svg"
 width="500.000000pt" height="500.000000pt" viewBox="0 0 500.000000 500.000000"
 preserveAspectRatio="xMidYMid meet">

<g transform="translate(0.000000,500.000000) scale(0.100000,-0.100000)"
fill="#000000" stroke="none">
<path d="M2875 4639 c-44 -85 -59 -328 -30 -504 19 -120 66 -274 120 -396 24
-55 38 -96 32 -91 -7 5 -39 31 -72 57 -180 145 -461 297 -692 375 -160 54
-168 52 -158 -44 9 -80 57 -225 101 -303 78 -141 252 -322 412 -431 46 -31
147 -91 225 -133 l142 -75 3 -55 c6 -93 -17 -373 -32 -387 -8 -9 -82 -20 -202
-32 -534 -54 -616 -67 -782 -124 -452 -154 -774 -458 -896 -845 -38 -121 -56
-238 -59 -391 l-2 -135 -103 -21 c-56 -11 -108 -26 -115 -33 -7 -7 -12 -42
-12 -89 0 -65 5 -87 31 -142 38 -80 122 -173 198 -219 108 -64 250 -87 363
-58 l52 14 0 -62 c-1 -102 41 -155 137 -174 78 -16 502 -31 854 -31 289 0 329
2 360 18 79 39 37 145 -82 205 -29 15 -96 38 -147 51 l-94 23 35 12 c79 26
148 112 243 302 26 51 57 105 69 117 25 28 78 57 122 66 29 6 31 5 52 -46 60
-146 85 -243 112 -442 26 -185 52 -230 155 -278 44 -20 66 -23 177 -23 120 0
128 1 152 24 43 41 42 55 -13 146 -102 166 -144 308 -144 490 -1 188 37 307
165 517 173 285 210 409 209 711 -1 140 2 184 14 207 16 31 19 33 130 50 128
20 215 76 292 187 92 134 80 205 -60 379 -165 205 -317 298 -539 329 l-47 7
-6 67 c-24 275 -44 375 -97 501 -131 310 -328 607 -472 712 -52 37 -81 37
-101 -3z"/>
</g>
</svg>
